<?xml version="1.0" encoding="UTF-8"?>
<svg width="300" height="450" viewBox="0 0 300 450" fill="none" xmlns="http://www.w3.org/2000/svg">
    <rect width="300" height="450" fill="#132f4c"/>
    <path d="M150 160C138.954 160 130 168.954 130 180C130 191.046 138.954 200 150 200C161.046 200 170 191.046 170 180C170 168.954 161.046 160 150 160ZM150 190C144.477 190 140 185.523 140 180C140 174.477 144.477 170 150 170C155.523 170 160 174.477 160 180C160 185.523 155.523 190 150 190Z" fill="#5090d3"/>
    <path d="M190 140H110C104.477 140 100 144.477 100 150V270C100 275.523 104.477 280 110 280H190C195.523 280 200 275.523 200 270V150C200 144.477 195.523 140 190 140ZM190 270H110V150H190V270Z" fill="#5090d3"/>
    <text x="150" y="320" text-anchor="middle" font-family="Arial" font-size="24" fill="#ffffff">Нет постера</text>
</svg>
